<svg id="logo" xmlns="http://www.w3.org/2000/svg" viewBox="0 0 2197 662">
  <defs>
    <style>
      .cls-1 {
        fill: #fff;
      }

      .cls-2, .cls-3 {
        fill: none;
        stroke: #fff;
        stroke-miterlimit: 10;
      }

      .cls-2 {
        stroke-width: 58px;
      }

      .cls-3 {
        stroke-width: 6px;
      }
    </style>
  </defs>
  <title>moodify</title>
  <g>
    <path class="cls-1" d="M1477,39V410h-74.5V379q-29,35-84,35-38,0-68.75-17a121.67,121.67,0,0,1-48.25-48.5Q1184,317,1184,275.5t17.5-73a121.72,121.72,0,0,1,48.25-48.5q30.75-17,68.75-17,51.49,0,80.5,32.5V39Zm-96,290.75q19.5-20.25,19.5-54.25T1381,221.25Q1361.5,201,1332,201q-30,0-49.5,20.25T1263,275.5q0,34,19.5,54.25T1332,350Q1361.5,350,1381,329.75Z"/>
    <path class="cls-1" d="M1553,91a40.53,40.53,0,0,1-13.5-31A40.55,40.55,0,0,1,1553,29q13.5-12.49,35-12.5t35,12a38.48,38.48,0,0,1,13.5,30q0,19.5-13.5,32.25t-35,12.75Q1566.49,103.5,1553,91Zm-4,50h78V410h-78Z"/>
    <path class="cls-1" d="M1785,147h69v60h-67V410h-78V207h-41.5V147H1709V135q0-46,27.25-73T1813,35a143.17,143.17,0,0,1,33.25,3.75Q1862,42.5,1872.49,49.5L1852,106q-13.5-9.49-31.5-9.5-35.51,0-35.5,39Z"/>
    <path class="cls-1" d="M2165,141l-121.5,285.5Q2025,473,1997.73,492T1932,511a136.71,136.71,0,0,1-41.5-6.5q-20.51-6.5-33.5-18l28.5-55.5a67,67,0,0,0,20.75,12.5,64.63,64.63,0,0,0,23.25,4.5q16,0,26-7.75t18-25.75l1-2.5L1858,141h80.5L2014,323.5,2090,141Z"/>
  </g>
  <g>
    <path class="cls-1" d="M569.24,396.07q-33.75-17.74-52.75-49.25t-19-71.5q0-40,19-71.5t52.75-49.25q33.75-17.74,76.25-17.75t76,17.75Q755,172.33,774,203.82t19,71.5q0,40-19,71.5t-52.5,49.25q-33.5,17.75-76,17.75T569.24,396.07Zm125.5-66.5Q714,309.32,714,275.32t-19.25-54.25q-19.25-20.25-49.25-20.25T596,221.07q-19.5,20.25-19.5,54.25T596,329.57q19.5,20.25,49.5,20.25T694.74,329.57Z"/>
    <path class="cls-1" d="M896.74,396.07Q863,378.33,844,346.82t-19-71.5q0-40,19-71.5t52.75-49.25q33.75-17.74,76.25-17.75t76,17.75q33.49,17.75,52.5,49.25t19,71.5q0,40-19,71.5T1049,396.07q-33.5,17.75-76,17.75T896.74,396.07Zm125.5-66.5q19.24-20.25,19.25-54.25t-19.25-54.25Q1003,200.82,973,200.82t-49.5,20.25Q904,241.32,904,275.32t19.5,54.25Q943,349.82,973,349.82T1022.24,329.57Z"/>
  </g>
  <path class="cls-1" d="M347.52,409.82l-.5-210-103,173h-36.5L105,204.32v205.5H29v-350H96l131,217.5L356,59.82h66.5l1,350Z"/>
  <path id="smile" class="cls-2" d="M625,505s81,54,180,54,180-54,180-54"/>
  <g id="r_earbud" data-name="r earbud">
    <path class="cls-3" d="M1164.56,355.42c0,77.28-40.95,228.53-39.56,306.58"/>
    <g>
      <rect class="cls-1" x="1159.07" y="277.4" width="13.19" height="87.91" rx="5" ry="5" transform="translate(2331.32 642.7) rotate(-180)"/>
      <path class="cls-1" d="M1139.29,322.45h0c7.25,0,19.78-5.93,19.78-13.19V286.19c0-7.25-12.53-13.19-19.78-13.19h0c-7.25,0-9.89,5.93-9.89,13.19v23.08C1129.4,316.52,1132,322.45,1139.29,322.45Z"/>
    </g>
  </g>
  <g id="r_earbud-2" data-name="r earbud">
    <path class="cls-3" d="M452.66,355.42c0,77.28,40.95,228.53,39.56,306.58"/>
    <g>
      <rect class="cls-1" x="444.97" y="277.4" width="13.19" height="87.91" rx="5" ry="5"/>
      <path class="cls-1" d="M477.93,322.45h0c-7.25,0-19.78-5.93-19.78-13.19V286.19c0-7.25,12.53-13.19,19.78-13.19h0c7.25,0,9.89,5.93,9.89,13.19v23.08C487.82,316.52,485.19,322.45,477.93,322.45Z"/>
    </g>
  </g>
</svg>
